<svg xmlns:dc="http://purl.org/dc/elements/1.1/" xmlns:cc="http://creativecommons.org/ns#" xmlns:rdf="http://www.w3.org/1999/02/22-rdf-syntax-ns#" xmlns:svg="http://www.w3.org/2000/svg" xmlns="http://www.w3.org/2000/svg" xmlns:sodipodi="http://sodipodi.sourceforge.net/DTD/sodipodi-0.dtd" xmlns:inkscape="http://www.inkscape.org/namespaces/inkscape" id="svg2" sodipodi:version="0.32" inkscape:version="0.46+devel" sodipodi:docname="ninemensmorris.svg" inkscape:output_extension="org.inkscape.output.svg.inkscape" viewBox="37.7 79.03 667.23 667.23">
  <metadata id="metadata7">
    <rdf:RDF>
      <cc:Work rdf:about="">
        <dc:format>image/svg+xml</dc:format>
        <dc:type rdf:resource="http://purl.org/dc/dcmitype/StillImage"/>
      </cc:Work>
    </rdf:RDF>
  </metadata>
  <defs id="defs5">
    <inkscape:perspective sodipodi:type="inkscape:persp3d" inkscape:vp_x="0 : 526.18109 : 1" inkscape:vp_y="0 : 1000 : 0" inkscape:vp_z="744.09448 : 526.18109 : 1" inkscape:persp3d-origin="372.04724 : 350.78739 : 1" id="perspective9"/>
  </defs>
  <sodipodi:namedview inkscape:window-height="846" inkscape:window-width="1440" inkscape:pageshadow="2" inkscape:pageopacity="0.0" guidetolerance="10.0" gridtolerance="10.0" objecttolerance="10.0" borderopacity="1.0" bordercolor="#666666" pagecolor="#e2e2f2" id="base" showgrid="false" inkscape:zoom="0.59485224" inkscape:cx="372.04724" inkscape:cy="526.18109" inkscape:window-x="0" inkscape:window-y="0" inkscape:current-layer="svg2"/>
  <g id="g3310">
    <path id="rect2427" d="m 69.139603,110.14072 605.90552,0 0,605.90552 -605.90552,0 z" style="fill:none;stroke:#e2e2f2;stroke-width:10;stroke-miterlimit:4;stroke-opacity:1"/>
    <path id="rect3199" d="m 163.68542,204.68654 416.81387,0 0,416.81387 -416.81387,0 z" style="fill:none;stroke:#e2e2f2;stroke-width:10;stroke-miterlimit:4;stroke-opacity:1;stroke-dasharray:none"/>
    <path id="rect3201" d="m 254.15369,295.15482 235.87735,0 0,235.87735 -235.87735,0 z" style="fill:none;stroke:#e2e2f2;stroke-width:10;stroke-miterlimit:4;stroke-opacity:1;stroke-dasharray:none"/>
    <path id="path3225" d="m -562.62656,252.84027 c 0,32.691563 -26.532283,59.223846 -59.223846,59.223846 -32.691563,0 -59.223846,-26.532283 -59.223846,-59.223846 0,-32.691563 26.532283,-59.223846 59.223846,-59.223846 32.691563,0 59.223846,26.532283 59.223846,59.223846 z" style="fill:#e2e2f2;fill-opacity:0.98039216;stroke:#e2e2f2;stroke-width:10;stroke-miterlimit:4;stroke-opacity:1" transform="matrix(0.4325248,0,0,0.4325248,337.27903,0.2859857)"/>
    <path id="path3227" d="m -562.62656,252.84027 c 0,32.691563 -26.532283,59.223846 -59.223846,59.223846 -32.691563,0 -59.223846,-26.532283 -59.223846,-59.223846 0,-32.691563 26.532283,-59.223846 59.223846,-59.223846 32.691563,0 59.223846,26.532283 59.223846,59.223846 z" style="fill:#e2e2f2;fill-opacity:0.98039216;stroke:#e2e2f2;stroke-width:10;stroke-miterlimit:4;stroke-opacity:1" transform="matrix(0.4325248,0,0,0.4325248,337.27903,604.28596)"/>
    <path id="path3229" d="m -562.62656,252.84027 c 0,32.691563 -26.532283,59.223846 -59.223846,59.223846 -32.691563,0 -59.223846,-26.532283 -59.223846,-59.223846 0,-32.691563 26.532283,-59.223846 59.223846,-59.223846 32.691563,0 59.223846,26.532283 59.223846,59.223846 z" style="fill:#e2e2f2;fill-opacity:0.98039216;stroke:#e2e2f2;stroke-width:10;stroke-miterlimit:4;stroke-opacity:1" transform="matrix(0.4325248,0,0,0.4325248,337.27903,302.28599)"/>
    <path id="path3231" d="m -562.62656,252.84027 c 0,32.691563 -26.532283,59.223846 -59.223846,59.223846 -32.691563,0 -59.223846,-26.532283 -59.223846,-59.223846 0,-32.691563 26.532283,-59.223846 59.223846,-59.223846 32.691563,0 59.223846,26.532283 59.223846,59.223846 z" style="fill:#e2e2f2;fill-opacity:0.98039216;stroke:#e2e2f2;stroke-width:10;stroke-miterlimit:4;stroke-opacity:1" transform="matrix(0.4325248,0,0,0.4325248,431.27903,302.28599)"/>
    <path id="path3233" d="m 277.92909,411.64568 c 0,14.139912 -11.47587,25.615782 -25.615782,25.615782 -14.139912,0 -25.615782,-11.47587 -25.615782,-25.615782 0,-14.139912 11.47587,-25.615782 25.615782,-25.615782 14.139912,0 25.615782,11.47587 25.615782,25.615782 z" style="fill:#e2e2f2;fill-opacity:0.98039216;stroke:#e2e2f2;stroke-width:4.32524776;stroke-miterlimit:4;stroke-opacity:1"/>
    <path id="path3235" d="m 513.92909,411.64568 c 0,14.139912 -11.47587,25.615782 -25.615782,25.615782 -14.139912,0 -25.615782,-11.47587 -25.615782,-25.615782 0,-14.139912 11.47587,-25.615782 25.615782,-25.615782 14.139912,0 25.615782,11.47587 25.615782,25.615782 z" style="fill:#e2e2f2;fill-opacity:0.98039216;stroke:#e2e2f2;stroke-width:4.32524776;stroke-miterlimit:4;stroke-opacity:1"/>
    <path id="path3237" d="m -562.62656,252.84027 c 0,32.691563 -26.532283,59.223846 -59.223846,59.223846 -32.691563,0 -59.223846,-26.532283 -59.223846,-59.223846 0,-32.691563 26.532283,-59.223846 59.223846,-59.223846 32.691563,0 59.223846,26.532283 59.223846,59.223846 z" style="fill:#e2e2f2;fill-opacity:0.98039216;stroke:#e2e2f2;stroke-width:10;stroke-miterlimit:4;stroke-opacity:1" transform="matrix(0.4325248,0,0,0.4325248,849.27903,302.28599)"/>
    <path id="path3239" d="m -562.62656,252.84027 c 0,32.691563 -26.532283,59.223846 -59.223846,59.223846 -32.691563,0 -59.223846,-26.532283 -59.223846,-59.223846 0,-32.691563 26.532283,-59.223846 59.223846,-59.223846 32.691563,0 59.223846,26.532283 59.223846,59.223846 z" style="fill:#e2e2f2;fill-opacity:0.98039216;stroke:#e2e2f2;stroke-width:10;stroke-miterlimit:4;stroke-opacity:1" transform="matrix(0.4325248,0,0,0.4325248,943.27903,302.28599)"/>
    <path id="path3241" d="m -562.62656,252.84027 c 0,32.691563 -26.532283,59.223846 -59.223846,59.223846 -32.691563,0 -59.223846,-26.532283 -59.223846,-59.223846 0,-32.691563 26.532283,-59.223846 59.223846,-59.223846 32.691563,0 59.223846,26.532283 59.223846,59.223846 z" style="fill:#e2e2f2;fill-opacity:0.98039216;stroke:#e2e2f2;stroke-width:10;stroke-miterlimit:4;stroke-opacity:1" transform="matrix(0.4325248,0,0,0.4325248,943.27903,0.28599)"/>
    <path id="path3243" d="m -562.62656,252.84027 c 0,32.691563 -26.532283,59.223846 -59.223846,59.223846 -32.691563,0 -59.223846,-26.532283 -59.223846,-59.223846 0,-32.691563 26.532283,-59.223846 59.223846,-59.223846 32.691563,0 59.223846,26.532283 59.223846,59.223846 z" style="fill:#e2e2f2;fill-opacity:0.98039216;stroke:#e2e2f2;stroke-width:10;stroke-miterlimit:4;stroke-opacity:1" transform="matrix(0.4325248,0,0,0.4325248,943.27903,606.28599)"/>
    <path id="path3245" d="m -562.62656,252.84027 c 0,32.691563 -26.532283,59.223846 -59.223846,59.223846 -32.691563,0 -59.223846,-26.532283 -59.223846,-59.223846 0,-32.691563 26.532283,-59.223846 59.223846,-59.223846 32.691563,0 59.223846,26.532283 59.223846,59.223846 z" style="fill:#e2e2f2;fill-opacity:0.98039216;stroke:#e2e2f2;stroke-width:10;stroke-miterlimit:4;stroke-opacity:1" transform="matrix(0.4325248,0,0,0.4325248,849.27903,510.28599)"/>
    <path id="path3247" d="m -562.62656,252.84027 c 0,32.691563 -26.532283,59.223846 -59.223846,59.223846 -32.691563,0 -59.223846,-26.532283 -59.223846,-59.223846 0,-32.691563 26.532283,-59.223846 59.223846,-59.223846 32.691563,0 59.223846,26.532283 59.223846,59.223846 z" style="fill:#e2e2f2;fill-opacity:0.98039216;stroke:#e2e2f2;stroke-width:10;stroke-miterlimit:4;stroke-opacity:1" transform="matrix(0.4325248,0,0,0.4325248,431.27903,510.28599)"/>
    <path id="path3249" d="m -562.62656,252.84027 c 0,32.691563 -26.532283,59.223846 -59.223846,59.223846 -32.691563,0 -59.223846,-26.532283 -59.223846,-59.223846 0,-32.691563 26.532283,-59.223846 59.223846,-59.223846 32.691563,0 59.223846,26.532283 59.223846,59.223846 z" style="fill:#e2e2f2;fill-opacity:0.98039216;stroke:#e2e2f2;stroke-width:10;stroke-miterlimit:4;stroke-opacity:1" transform="matrix(0.4325248,0,0,0.4325248,431.27903,94.28599)"/>
    <path id="path3251" d="m -562.62656,252.84027 c 0,32.691563 -26.532283,59.223846 -59.223846,59.223846 -32.691563,0 -59.223846,-26.532283 -59.223846,-59.223846 0,-32.691563 26.532283,-59.223846 59.223846,-59.223846 32.691563,0 59.223846,26.532283 59.223846,59.223846 z" style="fill:#e2e2f2;fill-opacity:0.98039216;stroke:#e2e2f2;stroke-width:10;stroke-miterlimit:4;stroke-opacity:1" transform="matrix(0.4325248,0,0,0.4325248,847.27903,94.28599)"/>
    <path id="path3253" d="m 513.92909,293.64568 c 0,14.139912 -11.47587,25.615782 -25.615782,25.615782 -14.139912,0 -25.615782,-11.47587 -25.615782,-25.615782 0,-14.139912 11.47587,-25.615782 25.615782,-25.615782 14.139912,0 25.615782,11.47587 25.615782,25.615782 z" style="fill:#e2e2f2;fill-opacity:0.98039216;stroke:#e2e2f2;stroke-width:4.32524776;stroke-miterlimit:4;stroke-opacity:1"/>
    <path id="path3255" d="m 279.92909,293.64568 c 0,14.139912 -11.47587,25.615782 -25.615782,25.615782 -14.139912,0 -25.615782,-11.47587 -25.615782,-25.615782 0,-14.139912 11.47587,-25.615782 25.615782,-25.615782 14.139912,0 25.615782,11.47587 25.615782,25.615782 z" style="fill:#e2e2f2;fill-opacity:0.98039216;stroke:#e2e2f2;stroke-width:4.32524776;stroke-miterlimit:4;stroke-opacity:1"/>
    <path id="path3257" d="m 279.92909,529.64568 c 0,14.139912 -11.47587,25.615782 -25.615782,25.615782 -14.139912,0 -25.615782,-11.47587 -25.615782,-25.615782 0,-14.139912 11.47587,-25.615782 25.615782,-25.615782 14.139912,0 25.615782,11.47587 25.615782,25.615782 z" style="fill:#e2e2f2;fill-opacity:0.98039216;stroke:#e2e2f2;stroke-width:4.32524776;stroke-miterlimit:4;stroke-opacity:1"/>
    <path id="path3259" d="m 513.92909,529.64568 c 0,14.139912 -11.47587,25.615782 -25.615782,25.615782 -14.139912,0 -25.615782,-11.47587 -25.615782,-25.615782 0,-14.139912 11.47587,-25.615782 25.615782,-25.615782 14.139912,0 25.615782,11.47587 25.615782,25.615782 z" style="fill:#e2e2f2;fill-opacity:0.98039216;stroke:#e2e2f2;stroke-width:4.32524776;stroke-miterlimit:4;stroke-opacity:1"/>
    <path id="path3261" d="m 397.70814,293.64568 c 0,14.139912 -11.47587,25.615782 -25.615782,25.615782 -14.139912,0 -25.615782,-11.47587 -25.615782,-25.615782 0,-14.139912 11.47587,-25.615782 25.615782,-25.615782 14.139912,0 25.615782,11.47587 25.615782,25.615782 z" style="fill:#e2e2f2;fill-opacity:0.98039216;stroke:#e2e2f2;stroke-width:4.32524776;stroke-miterlimit:4;stroke-opacity:1"/>
    <path id="path3263" d="m 397.70814,529.64568 c 0,14.139912 -11.47587,25.615782 -25.615782,25.615782 -14.139912,0 -25.615782,-11.47587 -25.615782,-25.615782 0,-14.139912 11.47587,-25.615782 25.615782,-25.615782 14.139912,0 25.615782,11.47587 25.615782,25.615782 z" style="fill:#e2e2f2;fill-opacity:0.98039216;stroke:#e2e2f2;stroke-width:4.32524776;stroke-miterlimit:4;stroke-opacity:1"/>
    <path id="path3265" d="m -562.62656,252.84027 c 0,32.691563 -26.532283,59.223846 -59.223846,59.223846 -32.691563,0 -59.223846,-26.532283 -59.223846,-59.223846 0,-32.691563 26.532283,-59.223846 59.223846,-59.223846 32.691563,0 59.223846,26.532283 59.223846,59.223846 z" style="fill:#e2e2f2;fill-opacity:0.98039216;stroke:#e2e2f2;stroke-width:10;stroke-miterlimit:4;stroke-opacity:1" transform="matrix(0.4325248,0,0,0.4325248,641.05808,512.28599)"/>
    <path id="path3267" d="m -562.62656,252.84027 c 0,32.691563 -26.532283,59.223846 -59.223846,59.223846 -32.691563,0 -59.223846,-26.532283 -59.223846,-59.223846 0,-32.691563 26.532283,-59.223846 59.223846,-59.223846 32.691563,0 59.223846,26.532283 59.223846,59.223846 z" style="fill:#e2e2f2;fill-opacity:0.98039216;stroke:#e2e2f2;stroke-width:10;stroke-miterlimit:4;stroke-opacity:1" transform="matrix(0.4325248,0,0,0.4325248,641.05808,604.28599)"/>
    <path id="path3269" d="m -562.62656,252.84027 c 0,32.691563 -26.532283,59.223846 -59.223846,59.223846 -32.691563,0 -59.223846,-26.532283 -59.223846,-59.223846 0,-32.691563 26.532283,-59.223846 59.223846,-59.223846 32.691563,0 59.223846,26.532283 59.223846,59.223846 z" style="fill:#e2e2f2;fill-opacity:0.98039216;stroke:#e2e2f2;stroke-width:10;stroke-miterlimit:4;stroke-opacity:1" transform="matrix(0.4325248,0,0,0.4325248,641.05808,94.28599)"/>
    <path id="path3271" d="m -562.62656,252.84027 c 0,32.691563 -26.532283,59.223846 -59.223846,59.223846 -32.691563,0 -59.223846,-26.532283 -59.223846,-59.223846 0,-32.691563 26.532283,-59.223846 59.223846,-59.223846 32.691563,0 59.223846,26.532283 59.223846,59.223846 z" style="fill:#e2e2f2;fill-opacity:0.98039216;stroke:#e2e2f2;stroke-width:10;stroke-miterlimit:4;stroke-opacity:1" transform="matrix(0.4325248,0,0,0.4325248,641.05808,0.28599)"/>
    <path sodipodi:nodetypes="cc" id="path3273" d="m 372.24543,107.58974 -0.30614,176.51443" style="fill:none;stroke:#e2e2f2;stroke-width:10;stroke-linecap:butt;stroke-linejoin:miter;stroke-miterlimit:4;stroke-opacity:1;stroke-dasharray:none"/>
    <path sodipodi:nodetypes="cc" style="fill:none;stroke:#e2e2f2;stroke-width:10;stroke-linecap:butt;stroke-linejoin:miter;stroke-miterlimit:4;stroke-opacity:1;stroke-dasharray:none" d="m 372.24543,539.58974 -0.30614,176.51443" id="path3275"/>
    <path id="path3279" d="m 70.82877,412.9404 176.51443,0.30614" style="fill:none;stroke:#e2e2f2;stroke-width:10;stroke-linecap:butt;stroke-linejoin:miter;stroke-miterlimit:4;stroke-opacity:1;stroke-dasharray:none" sodipodi:nodetypes="cc"/>
    <path sodipodi:nodetypes="cc" style="fill:none;stroke:#e2e2f2;stroke-width:10;stroke-linecap:butt;stroke-linejoin:miter;stroke-miterlimit:4;stroke-opacity:1;stroke-dasharray:none" d="m 500.82877,412.9404 176.51443,0.30614" id="path3281"/>
  </g>
</svg>